<svg xmlns="http://www.w3.org/2000/svg" xmlns:xlink="http://www.w3.org/1999/xlink" width="500" zoomAndPan="magnify" viewBox="0 0 375 149.999998" height="200" preserveAspectRatio="xMidYMid meet" version="1.0"><defs><g/><clipPath id="078d80f9fd"><path d="M 2.097656 4.746094 L 194.847656 4.746094 L 194.847656 138 L 2.097656 138 Z M 2.097656 4.746094 " clip-rule="nonzero"/></clipPath></defs><g clip-path="url(#078d80f9fd)"><path fill="#007aff" d="M 418.167969 130.425781 C 420.238281 130.425781 421.917969 132.101562 421.917969 134.171875 C 421.917969 136.242188 420.242188 137.921875 418.167969 137.921875 L 33.183594 137.921875 C 29.476562 137.921875 26.105469 136.40625 23.667969 133.96875 C 21.226562 131.527344 19.710938 128.160156 19.710938 124.453125 L 19.710938 77.089844 L 13.03125 77.089844 C 10.421875 77.089844 8.273438 76.40625 6.597656 75.269531 C 4.742188 74.015625 3.511719 72.242188 2.894531 70.226562 L 2.890625 70.226562 C 2.316406 68.355469 2.296875 66.292969 2.8125 64.292969 C 3.425781 61.90625 4.804688 59.578125 6.894531 57.773438 L 64.292969 8.292969 C 67.042969 5.929688 70.605469 4.746094 74.128906 4.746094 C 77.652344 4.746094 81.214844 5.929688 83.960938 8.292969 L 122.535156 41.660156 C 124.097656 43.007812 124.269531 45.371094 122.917969 46.929688 C 121.570312 48.492188 119.207031 48.664062 117.648438 47.3125 L 79.070312 13.949219 C 77.75 12.8125 75.957031 12.242188 74.128906 12.242188 C 72.300781 12.242188 70.503906 12.8125 69.183594 13.949219 L 11.785156 63.429688 C 10.882812 64.207031 10.296875 65.175781 10.050781 66.136719 C 9.875 66.816406 9.871094 67.472656 10.039062 68.03125 L 10.035156 68.03125 L 10.039062 68.042969 C 10.160156 68.445312 10.410156 68.804688 10.785156 69.058594 C 11.277344 69.390625 12.015625 69.589844 13.03125 69.589844 L 23.460938 69.589844 C 25.53125 69.589844 27.210938 71.269531 27.210938 73.339844 L 27.210938 124.453125 C 27.210938 126.089844 27.886719 127.585938 28.96875 128.667969 C 30.050781 129.75 31.542969 130.425781 33.183594 130.425781 Z M 418.167969 130.425781 " fill-opacity="1" fill-rule="nonzero"/></g><g fill="#ffffff" fill-opacity="1"><g transform="translate(116.005381, 114.406092)"><g><path d="M 14.265625 -19.125 L 14.265625 -7.203125 L 35.0625 -7.203125 L 35.0625 0 L 5.65625 0 L 5.65625 -43.546875 L 34.578125 -43.546875 L 34.578125 -36.34375 L 14.265625 -36.34375 L 14.265625 -26.15625 L 32.015625 -26.15625 L 32.015625 -19.125 Z M 14.265625 -19.125 "/></g></g></g><g fill="#ffffff" fill-opacity="1"><g transform="translate(150.575897, 114.406092)"><g><path d="M 19.15625 0.625 C 15.976562 0.625 13.164062 -0.0351562 10.71875 -1.359375 C 8.28125 -2.679688 6.375 -4.617188 5 -7.171875 C 3.632812 -9.734375 2.953125 -12.8125 2.953125 -16.40625 C 2.953125 -20.019531 3.632812 -23.109375 5 -25.671875 C 6.375 -28.234375 8.269531 -30.175781 10.6875 -31.5 C 13.113281 -32.820312 15.882812 -33.484375 19 -33.484375 C 25.925781 -33.484375 30.363281 -30.96875 32.3125 -25.9375 L 26.65625 -21.890625 L 26.03125 -21.890625 C 25.351562 -23.441406 24.472656 -24.59375 23.390625 -25.34375 C 22.304688 -26.101562 20.84375 -26.484375 19 -26.484375 C 16.613281 -26.484375 14.753906 -25.65625 13.421875 -24 C 12.097656 -22.351562 11.4375 -19.820312 11.4375 -16.40625 C 11.4375 -13.03125 12.109375 -10.515625 13.453125 -8.859375 C 14.804688 -7.203125 16.707031 -6.375 19.15625 -6.375 C 20.9375 -6.375 22.445312 -6.851562 23.6875 -7.8125 C 24.9375 -8.78125 25.828125 -10.164062 26.359375 -11.96875 L 26.984375 -12.03125 L 32.859375 -8.8125 C 32.023438 -6.03125 30.476562 -3.757812 28.21875 -2 C 25.96875 -0.25 22.945312 0.625 19.15625 0.625 Z M 19.15625 0.625 "/></g></g></g><g fill="#ffffff" fill-opacity="1"><g transform="translate(181.572417, 114.406092)"><g><path d="M 19.09375 0.625 C 15.875 0.625 13.046875 -0.0351562 10.609375 -1.359375 C 8.179688 -2.679688 6.296875 -4.613281 4.953125 -7.15625 C 3.617188 -9.707031 2.953125 -12.789062 2.953125 -16.40625 C 2.953125 -20.019531 3.617188 -23.109375 4.953125 -25.671875 C 6.296875 -28.234375 8.179688 -30.175781 10.609375 -31.5 C 13.046875 -32.820312 15.875 -33.484375 19.09375 -33.484375 C 22.3125 -33.484375 25.132812 -32.820312 27.5625 -31.5 C 30 -30.175781 31.890625 -28.234375 33.234375 -25.671875 C 34.585938 -23.109375 35.265625 -20.019531 35.265625 -16.40625 C 35.265625 -12.789062 34.585938 -9.707031 33.234375 -7.15625 C 31.890625 -4.613281 30 -2.679688 27.5625 -1.359375 C 25.132812 -0.0351562 22.3125 0.625 19.09375 0.625 Z M 19.09375 -6.375 C 24.195312 -6.375 26.75 -9.71875 26.75 -16.40625 C 26.75 -19.882812 26.09375 -22.429688 24.78125 -24.046875 C 23.46875 -25.671875 21.570312 -26.484375 19.09375 -26.484375 C 13.988281 -26.484375 11.4375 -23.125 11.4375 -16.40625 C 11.4375 -9.71875 13.988281 -6.375 19.09375 -6.375 Z M 19.09375 -6.375 "/></g></g></g><g fill="#ffffff" fill-opacity="1"><g transform="translate(216.887511, 114.406092)"><g><path d="M 34.90625 -43.546875 L 34.90625 -36.3125 L 22.34375 -36.3125 L 22.34375 0 L 13.765625 0 L 13.765625 -36.3125 L 1.1875 -36.3125 L 1.1875 -43.546875 Z M 34.90625 -43.546875 "/></g></g></g><g fill="#ffffff" fill-opacity="1"><g transform="translate(250.117765, 114.406092)"><g><path d="M 32.46875 -14.5625 L 11.34375 -14.5625 C 11.582031 -11.707031 12.394531 -9.628906 13.78125 -8.328125 C 15.175781 -7.023438 17.078125 -6.375 19.484375 -6.375 C 21.367188 -6.375 22.894531 -6.722656 24.0625 -7.421875 C 25.238281 -8.128906 26.179688 -9.203125 26.890625 -10.640625 L 27.515625 -10.640625 L 33 -7.125 C 31.925781 -4.8125 30.304688 -2.941406 28.140625 -1.515625 C 25.984375 -0.0859375 23.097656 0.625 19.484375 0.625 C 16.085938 0.625 13.148438 -0.0195312 10.671875 -1.3125 C 8.203125 -2.601562 6.296875 -4.523438 4.953125 -7.078125 C 3.617188 -9.628906 2.953125 -12.738281 2.953125 -16.40625 C 2.953125 -20.144531 3.65625 -23.296875 5.0625 -25.859375 C 6.46875 -28.421875 8.375 -30.332031 10.78125 -31.59375 C 13.1875 -32.851562 15.890625 -33.484375 18.890625 -33.484375 C 23.535156 -33.484375 27.09375 -32.25 29.5625 -29.78125 C 32.03125 -27.320312 33.265625 -23.707031 33.265625 -18.9375 C 33.265625 -17.21875 33.207031 -15.878906 33.09375 -14.921875 Z M 25.375 -19.890625 C 25.300781 -22.398438 24.722656 -24.222656 23.640625 -25.359375 C 22.554688 -26.503906 20.972656 -27.078125 18.890625 -27.078125 C 14.710938 -27.078125 12.257812 -24.679688 11.53125 -19.890625 Z M 25.375 -19.890625 "/></g></g></g><g fill="#ffffff" fill-opacity="1"><g transform="translate(282.960845, 114.406092)"><g><path d="M 19.15625 0.625 C 15.976562 0.625 13.164062 -0.0351562 10.71875 -1.359375 C 8.28125 -2.679688 6.375 -4.617188 5 -7.171875 C 3.632812 -9.734375 2.953125 -12.8125 2.953125 -16.40625 C 2.953125 -20.019531 3.632812 -23.109375 5 -25.671875 C 6.375 -28.234375 8.269531 -30.175781 10.6875 -31.5 C 13.113281 -32.820312 15.882812 -33.484375 19 -33.484375 C 25.925781 -33.484375 30.363281 -30.96875 32.3125 -25.9375 L 26.65625 -21.890625 L 26.03125 -21.890625 C 25.351562 -23.441406 24.472656 -24.59375 23.390625 -25.34375 C 22.304688 -26.101562 20.84375 -26.484375 19 -26.484375 C 16.613281 -26.484375 14.753906 -25.65625 13.421875 -24 C 12.097656 -22.351562 11.4375 -19.820312 11.4375 -16.40625 C 11.4375 -13.03125 12.109375 -10.515625 13.453125 -8.859375 C 14.804688 -7.203125 16.707031 -6.375 19.15625 -6.375 C 20.9375 -6.375 22.445312 -6.851562 23.6875 -7.8125 C 24.9375 -8.78125 25.828125 -10.164062 26.359375 -11.96875 L 26.984375 -12.03125 L 32.859375 -8.8125 C 32.023438 -6.03125 30.476562 -3.757812 28.21875 -2 C 25.96875 -0.25 22.945312 0.625 19.15625 0.625 Z M 19.15625 0.625 "/></g></g></g><g fill="#ffffff" fill-opacity="1"><g transform="translate(313.957361, 114.406092)"><g><path d="M 4.734375 0 L 4.734375 -46.046875 L 12.984375 -46.046875 L 12.984375 -28.5625 L 13.609375 -28.4375 C 14.703125 -30.050781 16.039062 -31.296875 17.625 -32.171875 C 19.21875 -33.046875 21.132812 -33.484375 23.375 -33.484375 C 30.625 -33.484375 34.25 -29.367188 34.25 -21.140625 L 34.25 0 L 26 0 L 26 -20.109375 C 26 -22.347656 25.550781 -23.972656 24.65625 -24.984375 C 23.769531 -26.003906 22.382812 -26.515625 20.5 -26.515625 C 18.1875 -26.515625 16.351562 -25.742188 15 -24.203125 C 13.65625 -22.660156 12.984375 -20.257812 12.984375 -17 L 12.984375 0 Z M 4.734375 0 "/></g></g></g><g fill="#ffffff" fill-opacity="1"><g transform="translate(203.565387, 139.934043)"><g><path d="M 8.625 -3.140625 C 8.625 -2.515625 8.519531 -1.988281 8.3125 -1.5625 C 8.101562 -1.144531 7.8125 -0.804688 7.4375 -0.546875 C 7.070312 -0.296875 6.640625 -0.113281 6.140625 0 C 5.648438 0.101562 5.128906 0.15625 4.578125 0.15625 C 3.804688 0.15625 3.082031 0.0546875 2.40625 -0.140625 C 1.726562 -0.347656 1.125 -0.597656 0.59375 -0.890625 L 1.453125 -2.640625 C 1.734375 -2.453125 1.992188 -2.296875 2.234375 -2.171875 C 2.484375 -2.046875 2.726562 -1.945312 2.96875 -1.875 C 3.207031 -1.800781 3.453125 -1.75 3.703125 -1.71875 C 3.960938 -1.6875 4.25 -1.671875 4.5625 -1.671875 C 5.113281 -1.671875 5.566406 -1.773438 5.921875 -1.984375 C 6.273438 -2.191406 6.453125 -2.554688 6.453125 -3.078125 C 6.453125 -3.367188 6.375 -3.597656 6.21875 -3.765625 C 6.0625 -3.929688 5.847656 -4.066406 5.578125 -4.171875 C 5.316406 -4.285156 5.019531 -4.378906 4.6875 -4.453125 C 4.351562 -4.523438 4.007812 -4.609375 3.65625 -4.703125 C 3.3125 -4.796875 2.972656 -4.910156 2.640625 -5.046875 C 2.304688 -5.191406 2.007812 -5.390625 1.75 -5.640625 C 1.488281 -5.898438 1.273438 -6.21875 1.109375 -6.59375 C 0.953125 -6.976562 0.875 -7.460938 0.875 -8.046875 C 0.875 -8.535156 0.972656 -8.960938 1.171875 -9.328125 C 1.367188 -9.691406 1.632812 -9.992188 1.96875 -10.234375 C 2.3125 -10.472656 2.707031 -10.648438 3.15625 -10.765625 C 3.613281 -10.878906 4.109375 -10.9375 4.640625 -10.9375 C 5.410156 -10.9375 6.101562 -10.851562 6.71875 -10.6875 C 7.332031 -10.53125 7.882812 -10.332031 8.375 -10.09375 L 7.65625 -8.359375 C 7.289062 -8.554688 6.851562 -8.726562 6.34375 -8.875 C 5.84375 -9.03125 5.273438 -9.109375 4.640625 -9.109375 C 4.179688 -9.109375 3.800781 -9.019531 3.5 -8.84375 C 3.195312 -8.664062 3.046875 -8.398438 3.046875 -8.046875 C 3.046875 -7.609375 3.179688 -7.285156 3.453125 -7.078125 C 3.734375 -6.867188 4.078125 -6.707031 4.484375 -6.59375 C 4.898438 -6.476562 5.347656 -6.367188 5.828125 -6.265625 C 6.316406 -6.171875 6.765625 -6.015625 7.171875 -5.796875 C 7.585938 -5.585938 7.929688 -5.273438 8.203125 -4.859375 C 8.484375 -4.453125 8.625 -3.878906 8.625 -3.140625 Z M 8.625 -3.140625 "/></g></g></g><g fill="#ffffff" fill-opacity="1"><g transform="translate(215.876735, 139.934043)"><g><path d="M 5.453125 0.15625 C 4.734375 0.15625 4.082031 0.0664062 3.5 -0.109375 C 2.914062 -0.296875 2.414062 -0.601562 2 -1.03125 C 1.582031 -1.457031 1.253906 -2.023438 1.015625 -2.734375 C 0.785156 -3.453125 0.671875 -4.335938 0.671875 -5.390625 C 0.671875 -6.453125 0.785156 -7.335938 1.015625 -8.046875 C 1.253906 -8.753906 1.582031 -9.320312 2 -9.75 C 2.414062 -10.1875 2.914062 -10.492188 3.5 -10.671875 C 4.082031 -10.847656 4.734375 -10.9375 5.453125 -10.9375 C 6.171875 -10.9375 6.820312 -10.847656 7.40625 -10.671875 C 8 -10.492188 8.503906 -10.1875 8.921875 -9.75 C 9.335938 -9.320312 9.660156 -8.753906 9.890625 -8.046875 C 10.128906 -7.335938 10.25 -6.453125 10.25 -5.390625 C 10.25 -4.335938 10.128906 -3.453125 9.890625 -2.734375 C 9.660156 -2.023438 9.335938 -1.457031 8.921875 -1.03125 C 8.503906 -0.601562 8 -0.296875 7.40625 -0.109375 C 6.820312 0.0664062 6.171875 0.15625 5.453125 0.15625 Z M 5.453125 -1.671875 C 5.847656 -1.671875 6.207031 -1.726562 6.53125 -1.84375 C 6.851562 -1.957031 7.128906 -2.15625 7.359375 -2.4375 C 7.585938 -2.71875 7.765625 -3.097656 7.890625 -3.578125 C 8.015625 -4.054688 8.078125 -4.660156 8.078125 -5.390625 C 8.078125 -6.117188 8.015625 -6.722656 7.890625 -7.203125 C 7.765625 -7.679688 7.585938 -8.0625 7.359375 -8.34375 C 7.128906 -8.625 6.851562 -8.820312 6.53125 -8.9375 C 6.207031 -9.050781 5.847656 -9.109375 5.453125 -9.109375 C 5.066406 -9.109375 4.710938 -9.050781 4.390625 -8.9375 C 4.066406 -8.820312 3.789062 -8.625 3.5625 -8.34375 C 3.332031 -8.0625 3.15625 -7.679688 3.03125 -7.203125 C 2.90625 -6.722656 2.84375 -6.117188 2.84375 -5.390625 C 2.84375 -4.660156 2.90625 -4.054688 3.03125 -3.578125 C 3.15625 -3.097656 3.332031 -2.71875 3.5625 -2.4375 C 3.789062 -2.15625 4.066406 -1.957031 4.390625 -1.84375 C 4.710938 -1.726562 5.066406 -1.671875 5.453125 -1.671875 Z M 5.453125 -1.671875 "/></g></g></g><g fill="#ffffff" fill-opacity="1"><g transform="translate(229.821042, 139.934043)"><g><path d="M 3.078125 -1.828125 L 7.46875 -1.828125 L 7.46875 0 L 0.90625 0 L 0.90625 -10.78125 L 3.078125 -10.78125 Z M 3.078125 -1.828125 "/></g></g></g><g fill="#ffffff" fill-opacity="1"><g transform="translate(240.915348, 139.934043)"><g><path d="M 9.609375 -3.484375 C 9.609375 -2.828125 9.484375 -2.265625 9.234375 -1.796875 C 8.984375 -1.335938 8.65625 -0.960938 8.25 -0.671875 C 7.84375 -0.378906 7.375 -0.164062 6.84375 -0.03125 C 6.320312 0.09375 5.789062 0.15625 5.25 0.15625 C 4.707031 0.15625 4.175781 0.0859375 3.65625 -0.046875 C 3.132812 -0.179688 2.671875 -0.390625 2.265625 -0.671875 C 1.859375 -0.960938 1.53125 -1.335938 1.28125 -1.796875 C 1.03125 -2.265625 0.90625 -2.828125 0.90625 -3.484375 L 0.90625 -10.78125 L 3.078125 -10.78125 L 3.078125 -3.484375 C 3.078125 -3.148438 3.140625 -2.867188 3.265625 -2.640625 C 3.390625 -2.410156 3.550781 -2.222656 3.75 -2.078125 C 3.957031 -1.929688 4.191406 -1.828125 4.453125 -1.765625 C 4.710938 -1.703125 4.976562 -1.671875 5.25 -1.671875 C 5.53125 -1.671875 5.800781 -1.703125 6.0625 -1.765625 C 6.320312 -1.828125 6.554688 -1.929688 6.765625 -2.078125 C 6.972656 -2.222656 7.132812 -2.410156 7.25 -2.640625 C 7.375 -2.867188 7.4375 -3.148438 7.4375 -3.484375 L 7.4375 -10.78125 L 9.609375 -10.78125 Z M 9.609375 -3.484375 "/></g></g></g><g fill="#ffffff" fill-opacity="1"><g transform="translate(254.459131, 139.934043)"><g><path d="M 5.609375 -8.953125 L 5.609375 0 L 3.4375 0 L 3.4375 -8.953125 L 0.546875 -8.953125 L 0.546875 -10.78125 L 8.484375 -10.78125 L 8.484375 -8.953125 Z M 5.609375 -8.953125 "/></g></g></g><g fill="#ffffff" fill-opacity="1"><g transform="translate(266.539386, 139.934043)"><g><path d="M 5.125 -8.953125 L 4.015625 -8.953125 L 4.015625 -1.828125 L 5.125 -1.828125 L 5.125 0 L 0.734375 0 L 0.734375 -1.828125 L 1.84375 -1.828125 L 1.84375 -8.953125 L 0.734375 -8.953125 L 0.734375 -10.78125 L 5.125 -10.78125 Z M 5.125 -8.953125 "/></g></g></g><g fill="#ffffff" fill-opacity="1"><g transform="translate(275.446137, 139.934043)"><g><path d="M 5.453125 0.15625 C 4.734375 0.15625 4.082031 0.0664062 3.5 -0.109375 C 2.914062 -0.296875 2.414062 -0.601562 2 -1.03125 C 1.582031 -1.457031 1.253906 -2.023438 1.015625 -2.734375 C 0.785156 -3.453125 0.671875 -4.335938 0.671875 -5.390625 C 0.671875 -6.453125 0.785156 -7.335938 1.015625 -8.046875 C 1.253906 -8.753906 1.582031 -9.320312 2 -9.75 C 2.414062 -10.1875 2.914062 -10.492188 3.5 -10.671875 C 4.082031 -10.847656 4.734375 -10.9375 5.453125 -10.9375 C 6.171875 -10.9375 6.820312 -10.847656 7.40625 -10.671875 C 8 -10.492188 8.503906 -10.1875 8.921875 -9.75 C 9.335938 -9.320312 9.660156 -8.753906 9.890625 -8.046875 C 10.128906 -7.335938 10.25 -6.453125 10.25 -5.390625 C 10.25 -4.335938 10.128906 -3.453125 9.890625 -2.734375 C 9.660156 -2.023438 9.335938 -1.457031 8.921875 -1.03125 C 8.503906 -0.601562 8 -0.296875 7.40625 -0.109375 C 6.820312 0.0664062 6.171875 0.15625 5.453125 0.15625 Z M 5.453125 -1.671875 C 5.847656 -1.671875 6.207031 -1.726562 6.53125 -1.84375 C 6.851562 -1.957031 7.128906 -2.15625 7.359375 -2.4375 C 7.585938 -2.71875 7.765625 -3.097656 7.890625 -3.578125 C 8.015625 -4.054688 8.078125 -4.660156 8.078125 -5.390625 C 8.078125 -6.117188 8.015625 -6.722656 7.890625 -7.203125 C 7.765625 -7.679688 7.585938 -8.0625 7.359375 -8.34375 C 7.128906 -8.625 6.851562 -8.820312 6.53125 -8.9375 C 6.207031 -9.050781 5.847656 -9.109375 5.453125 -9.109375 C 5.066406 -9.109375 4.710938 -9.050781 4.390625 -8.9375 C 4.066406 -8.820312 3.789062 -8.625 3.5625 -8.34375 C 3.332031 -8.0625 3.15625 -7.679688 3.03125 -7.203125 C 2.90625 -6.722656 2.84375 -6.117188 2.84375 -5.390625 C 2.84375 -4.660156 2.90625 -4.054688 3.03125 -3.578125 C 3.15625 -3.097656 3.332031 -2.71875 3.5625 -2.4375 C 3.789062 -2.15625 4.066406 -1.957031 4.390625 -1.84375 C 4.710938 -1.726562 5.066406 -1.671875 5.453125 -1.671875 Z M 5.453125 -1.671875 "/></g></g></g><g fill="#ffffff" fill-opacity="1"><g transform="translate(289.39044, 139.934043)"><g><path d="M 2.875 -10.78125 L 7.203125 -4.25 L 7.203125 -10.78125 L 9.375 -10.78125 L 9.375 0 L 7.40625 0 L 3.078125 -6.515625 L 3.078125 0 L 0.90625 0 L 0.90625 -10.78125 Z M 2.875 -10.78125 "/></g></g></g></svg>