<svg xmlns="http://www.w3.org/2000/svg" xmlns:xlink="http://www.w3.org/1999/xlink" width="500" zoomAndPan="magnify" viewBox="0 0 375 374.999991" height="500" preserveAspectRatio="xMidYMid meet" version="1.0"><path fill="#ffffff" d="M 278.382812 187.5 C 278.382812 188.984375 278.34375 190.472656 278.273438 191.957031 C 278.199219 193.441406 278.089844 194.925781 277.945312 196.40625 C 277.796875 197.886719 277.617188 199.363281 277.398438 200.832031 C 277.179688 202.304688 276.925781 203.769531 276.636719 205.230469 C 276.34375 206.6875 276.019531 208.136719 275.65625 209.582031 C 275.296875 211.023438 274.898438 212.457031 274.46875 213.878906 C 274.035156 215.304688 273.570312 216.714844 273.070312 218.117188 C 272.566406 219.515625 272.03125 220.902344 271.464844 222.277344 C 270.894531 223.652344 270.292969 225.011719 269.65625 226.355469 C 269.019531 227.699219 268.351562 229.027344 267.648438 230.339844 C 266.949219 231.652344 266.214844 232.945312 265.453125 234.222656 C 264.6875 235.496094 263.890625 236.753906 263.066406 237.992188 C 262.238281 239.226562 261.382812 240.441406 260.496094 241.636719 C 259.609375 242.832031 258.695312 244.003906 257.753906 245.152344 C 256.808594 246.304688 255.835938 247.429688 254.839844 248.53125 C 253.839844 249.632812 252.8125 250.710938 251.761719 251.761719 C 250.710938 252.8125 249.632812 253.839844 248.53125 254.839844 C 247.429688 255.835938 246.304688 256.808594 245.152344 257.753906 C 244.003906 258.695312 242.832031 259.609375 241.636719 260.496094 C 240.441406 261.382812 239.226562 262.238281 237.992188 263.066406 C 236.753906 263.890625 235.496094 264.6875 234.222656 265.453125 C 232.945312 266.214844 231.652344 266.949219 230.339844 267.648438 C 229.027344 268.351562 227.699219 269.019531 226.355469 269.65625 C 225.011719 270.292969 223.652344 270.894531 222.277344 271.464844 C 220.902344 272.03125 219.515625 272.566406 218.117188 273.070312 C 216.714844 273.570312 215.304688 274.035156 213.878906 274.46875 C 212.457031 274.898438 211.023438 275.296875 209.582031 275.65625 C 208.136719 276.019531 206.6875 276.34375 205.230469 276.636719 C 203.769531 276.925781 202.304688 277.179688 200.832031 277.398438 C 199.363281 277.617188 197.886719 277.796875 196.40625 277.945312 C 194.925781 278.089844 193.441406 278.199219 191.957031 278.273438 C 190.472656 278.34375 188.984375 278.382812 187.5 278.382812 C 186.011719 278.382812 184.523438 278.34375 183.039062 278.273438 C 181.554688 278.199219 180.070312 278.089844 178.589844 277.945312 C 177.109375 277.796875 175.632812 277.617188 174.164062 277.398438 C 172.691406 277.179688 171.226562 276.925781 169.765625 276.636719 C 168.308594 276.34375 166.859375 276.019531 165.414062 275.65625 C 163.972656 275.296875 162.539062 274.898438 161.117188 274.46875 C 159.691406 274.035156 158.28125 273.570312 156.878906 273.070312 C 155.480469 272.566406 154.09375 272.03125 152.71875 271.464844 C 151.34375 270.894531 149.984375 270.292969 148.640625 269.65625 C 147.296875 269.019531 145.96875 268.351562 144.65625 267.648438 C 143.34375 266.949219 142.050781 266.214844 140.773438 265.453125 C 139.5 264.6875 138.242188 263.890625 137.003906 263.066406 C 135.769531 262.238281 134.554688 261.382812 133.359375 260.496094 C 132.164062 259.609375 130.992188 258.695312 129.84375 257.753906 C 128.691406 256.808594 127.566406 255.835938 126.464844 254.839844 C 125.363281 253.839844 124.285156 252.8125 123.234375 251.761719 C 122.183594 250.710938 121.15625 249.632812 120.15625 248.53125 C 119.160156 247.429688 118.1875 246.304688 117.242188 245.152344 C 116.300781 244.003906 115.386719 242.832031 114.5 241.636719 C 113.613281 240.441406 112.757812 239.226562 111.929688 237.992188 C 111.105469 236.753906 110.308594 235.496094 109.542969 234.222656 C 108.78125 232.945312 108.046875 231.652344 107.34375 230.339844 C 106.644531 229.027344 105.976562 227.699219 105.339844 226.355469 C 104.703125 225.011719 104.101562 223.652344 103.53125 222.277344 C 102.964844 220.902344 102.429688 219.515625 101.925781 218.117188 C 101.425781 216.714844 100.960938 215.304688 100.527344 213.878906 C 100.097656 212.457031 99.699219 211.023438 99.339844 209.582031 C 98.976562 208.136719 98.652344 206.6875 98.359375 205.230469 C 98.070312 203.769531 97.816406 202.304688 97.597656 200.832031 C 97.378906 199.363281 97.199219 197.886719 97.050781 196.40625 C 96.90625 194.925781 96.796875 193.441406 96.722656 191.957031 C 96.652344 190.472656 96.613281 188.984375 96.613281 187.5 C 96.613281 186.011719 96.652344 184.523438 96.722656 183.039062 C 96.796875 181.554688 96.90625 180.070312 97.050781 178.589844 C 97.199219 177.109375 97.378906 175.632812 97.597656 174.164062 C 97.816406 172.691406 98.070312 171.226562 98.359375 169.765625 C 98.652344 168.308594 98.976562 166.859375 99.339844 165.414062 C 99.699219 163.972656 100.097656 162.539062 100.527344 161.117188 C 100.960938 159.691406 101.425781 158.28125 101.925781 156.878906 C 102.429688 155.480469 102.964844 154.09375 103.53125 152.71875 C 104.101562 151.34375 104.703125 149.984375 105.339844 148.640625 C 105.976562 147.296875 106.644531 145.96875 107.34375 144.65625 C 108.046875 143.34375 108.78125 142.050781 109.542969 140.773438 C 110.308594 139.5 111.105469 138.242188 111.929688 137.003906 C 112.757812 135.769531 113.613281 134.554688 114.5 133.359375 C 115.386719 132.164062 116.300781 130.992188 117.242188 129.84375 C 118.1875 128.691406 119.160156 127.566406 120.15625 126.464844 C 121.15625 125.363281 122.183594 124.285156 123.234375 123.234375 C 124.285156 122.183594 125.363281 121.15625 126.464844 120.15625 C 127.566406 119.160156 128.691406 118.1875 129.84375 117.242188 C 130.992188 116.300781 132.164062 115.386719 133.359375 114.5 C 134.554688 113.613281 135.769531 112.757812 137.003906 111.929688 C 138.242188 111.105469 139.5 110.308594 140.773438 109.542969 C 142.050781 108.78125 143.34375 108.046875 144.65625 107.34375 C 145.96875 106.644531 147.296875 105.976562 148.640625 105.339844 C 149.984375 104.703125 151.34375 104.101562 152.71875 103.53125 C 154.09375 102.964844 155.480469 102.429688 156.878906 101.925781 C 158.28125 101.425781 159.691406 100.960938 161.117188 100.527344 C 162.539062 100.097656 163.972656 99.699219 165.414062 99.339844 C 166.859375 98.976562 168.308594 98.652344 169.765625 98.359375 C 171.226562 98.070312 172.691406 97.816406 174.164062 97.597656 C 175.632812 97.378906 177.109375 97.199219 178.589844 97.050781 C 180.070312 96.90625 181.554688 96.796875 183.039062 96.722656 C 184.523438 96.652344 186.011719 96.613281 187.5 96.613281 C 188.984375 96.613281 190.472656 96.652344 191.957031 96.722656 C 193.441406 96.796875 194.925781 96.90625 196.40625 97.050781 C 197.886719 97.199219 199.363281 97.378906 200.832031 97.597656 C 202.304688 97.816406 203.769531 98.070312 205.230469 98.359375 C 206.6875 98.652344 208.136719 98.976562 209.582031 99.339844 C 211.023438 99.699219 212.457031 100.097656 213.878906 100.527344 C 215.304688 100.960938 216.714844 101.425781 218.117188 101.925781 C 219.515625 102.429688 220.902344 102.964844 222.277344 103.53125 C 223.652344 104.101562 225.011719 104.703125 226.355469 105.339844 C 227.699219 105.976562 229.027344 106.644531 230.339844 107.34375 C 231.652344 108.046875 232.945312 108.78125 234.222656 109.542969 C 235.496094 110.308594 236.753906 111.105469 237.992188 111.929688 C 239.226562 112.757812 240.441406 113.613281 241.636719 114.5 C 242.832031 115.386719 244.003906 116.300781 245.152344 117.242188 C 246.304688 118.1875 247.429688 119.160156 248.53125 120.15625 C 249.632812 121.15625 250.710938 122.183594 251.761719 123.234375 C 252.8125 124.285156 253.839844 125.363281 254.839844 126.464844 C 255.835938 127.566406 256.808594 128.691406 257.753906 129.84375 C 258.695312 130.992188 259.609375 132.164062 260.496094 133.359375 C 261.382812 134.554688 262.238281 135.769531 263.066406 137.003906 C 263.890625 138.242188 264.6875 139.5 265.453125 140.773438 C 266.214844 142.050781 266.949219 143.34375 267.648438 144.65625 C 268.351562 145.96875 269.019531 147.296875 269.65625 148.640625 C 270.292969 149.984375 270.894531 151.34375 271.464844 152.71875 C 272.03125 154.09375 272.566406 155.480469 273.070312 156.878906 C 273.570312 158.28125 274.035156 159.691406 274.46875 161.117188 C 274.898438 162.539062 275.296875 163.972656 275.65625 165.414062 C 276.019531 166.859375 276.34375 168.308594 276.636719 169.765625 C 276.925781 171.226562 277.179688 172.691406 277.398438 174.164062 C 277.617188 175.632812 277.796875 177.109375 277.945312 178.589844 C 278.089844 180.070312 278.199219 181.554688 278.273438 183.039062 C 278.34375 184.523438 278.382812 186.011719 278.382812 187.5 Z M 278.382812 187.5 " fill-opacity="1" fill-rule="nonzero"/><path fill="#ffffff" d="M 351.089844 205.675781 L 332.914062 205.675781 C 332.316406 205.675781 331.722656 205.644531 331.128906 205.585938 C 330.539062 205.527344 329.949219 205.441406 329.367188 205.324219 C 328.78125 205.210938 328.207031 205.066406 327.636719 204.890625 C 327.066406 204.71875 326.507812 204.519531 325.957031 204.292969 C 325.40625 204.0625 324.867188 203.808594 324.34375 203.527344 C 323.820312 203.246094 323.308594 202.941406 322.8125 202.613281 C 322.320312 202.28125 321.839844 201.925781 321.382812 201.550781 C 320.921875 201.171875 320.480469 200.773438 320.058594 200.351562 C 319.636719 199.929688 319.238281 199.488281 318.859375 199.027344 C 318.484375 198.570312 318.128906 198.089844 317.796875 197.597656 C 317.46875 197.101562 317.164062 196.589844 316.882812 196.066406 C 316.601562 195.542969 316.347656 195.003906 316.117188 194.453125 C 315.890625 193.902344 315.691406 193.34375 315.519531 192.773438 C 315.34375 192.203125 315.199219 191.628906 315.085938 191.042969 C 314.96875 190.460938 314.882812 189.871094 314.824219 189.28125 C 314.765625 188.6875 314.734375 188.09375 314.734375 187.5 C 314.734375 186.902344 314.765625 186.308594 314.824219 185.714844 C 314.882812 185.125 314.96875 184.535156 315.085938 183.953125 C 315.199219 183.367188 315.34375 182.792969 315.519531 182.222656 C 315.691406 181.652344 315.890625 181.09375 316.117188 180.542969 C 316.347656 179.992188 316.601562 179.453125 316.882812 178.929688 C 317.164062 178.40625 317.46875 177.894531 317.796875 177.398438 C 318.128906 176.90625 318.484375 176.425781 318.859375 175.96875 C 319.238281 175.507812 319.636719 175.066406 320.058594 174.644531 C 320.480469 174.222656 320.921875 173.824219 321.382812 173.445312 C 321.839844 173.070312 322.320312 172.714844 322.8125 172.382812 C 323.308594 172.054688 323.820312 171.75 324.34375 171.46875 C 324.867188 171.1875 325.40625 170.933594 325.957031 170.703125 C 326.507812 170.476562 327.066406 170.277344 327.636719 170.105469 C 328.207031 169.929688 328.78125 169.785156 329.367188 169.671875 C 329.949219 169.554688 330.539062 169.46875 331.128906 169.410156 C 331.722656 169.351562 332.316406 169.320312 332.914062 169.320312 L 351.089844 169.320312 C 351.683594 169.320312 352.277344 169.351562 352.871094 169.410156 C 353.464844 169.46875 354.050781 169.554688 354.636719 169.671875 C 355.21875 169.785156 355.796875 169.929688 356.367188 170.105469 C 356.933594 170.277344 357.496094 170.476562 358.042969 170.703125 C 358.59375 170.933594 359.132812 171.1875 359.65625 171.46875 C 360.183594 171.75 360.691406 172.054688 361.1875 172.382812 C 361.683594 172.714844 362.160156 173.070312 362.621094 173.445312 C 363.082031 173.824219 363.519531 174.222656 363.941406 174.644531 C 364.363281 175.066406 364.761719 175.507812 365.140625 175.96875 C 365.515625 176.425781 365.871094 176.90625 366.203125 177.398438 C 366.53125 177.894531 366.839844 178.40625 367.121094 178.929688 C 367.398438 179.453125 367.652344 179.992188 367.882812 180.542969 C 368.109375 181.09375 368.308594 181.652344 368.484375 182.222656 C 368.65625 182.792969 368.800781 183.367188 368.917969 183.953125 C 369.03125 184.535156 369.121094 185.125 369.179688 185.714844 C 369.238281 186.308594 369.265625 186.902344 369.265625 187.5 C 369.265625 188.09375 369.238281 188.6875 369.179688 189.28125 C 369.121094 189.871094 369.03125 190.460938 368.917969 191.042969 C 368.800781 191.628906 368.65625 192.203125 368.484375 192.773438 C 368.308594 193.34375 368.109375 193.902344 367.882812 194.453125 C 367.652344 195.003906 367.398438 195.542969 367.121094 196.066406 C 366.839844 196.589844 366.53125 197.101562 366.203125 197.597656 C 365.871094 198.089844 365.515625 198.570312 365.140625 199.027344 C 364.761719 199.488281 364.363281 199.929688 363.941406 200.351562 C 363.519531 200.773438 363.082031 201.171875 362.621094 201.550781 C 362.160156 201.925781 361.683594 202.28125 361.1875 202.613281 C 360.691406 202.941406 360.183594 203.246094 359.65625 203.527344 C 359.132812 203.808594 358.59375 204.0625 358.042969 204.292969 C 357.496094 204.519531 356.933594 204.71875 356.367188 204.890625 C 355.796875 205.066406 355.21875 205.210938 354.636719 205.324219 C 354.050781 205.441406 353.464844 205.527344 352.871094 205.585938 C 352.277344 205.644531 351.683594 205.675781 351.089844 205.675781 Z M 351.089844 205.675781 " fill-opacity="1" fill-rule="nonzero"/><path fill="#ffffff" d="M 42.085938 205.675781 L 23.90625 205.675781 C 23.3125 205.675781 22.71875 205.644531 22.125 205.585938 C 21.53125 205.527344 20.945312 205.441406 20.359375 205.324219 C 19.777344 205.210938 19.199219 205.066406 18.628906 204.890625 C 18.0625 204.71875 17.5 204.519531 16.953125 204.292969 C 16.402344 204.0625 15.863281 203.808594 15.339844 203.527344 C 14.8125 203.246094 14.304688 202.941406 13.808594 202.613281 C 13.3125 202.28125 12.835938 201.925781 12.375 201.550781 C 11.914062 201.171875 11.476562 200.773438 11.054688 200.351562 C 10.632812 199.929688 10.234375 199.488281 9.855469 199.027344 C 9.480469 198.570312 9.125 198.089844 8.792969 197.597656 C 8.464844 197.101562 8.15625 196.589844 7.875 196.066406 C 7.597656 195.542969 7.34375 195.003906 7.113281 194.453125 C 6.886719 193.902344 6.6875 193.34375 6.511719 192.773438 C 6.339844 192.203125 6.195312 191.628906 6.078125 191.042969 C 5.964844 190.460938 5.875 189.871094 5.816406 189.28125 C 5.757812 188.6875 5.730469 188.09375 5.730469 187.5 C 5.730469 186.902344 5.757812 186.308594 5.816406 185.714844 C 5.875 185.125 5.964844 184.535156 6.078125 183.953125 C 6.195312 183.367188 6.339844 182.792969 6.511719 182.222656 C 6.6875 181.652344 6.886719 181.09375 7.113281 180.542969 C 7.34375 179.992188 7.597656 179.453125 7.875 178.929688 C 8.15625 178.40625 8.464844 177.894531 8.792969 177.398438 C 9.125 176.90625 9.480469 176.425781 9.855469 175.96875 C 10.234375 175.507812 10.632812 175.066406 11.054688 174.644531 C 11.476562 174.222656 11.914062 173.824219 12.375 173.445312 C 12.835938 173.070312 13.3125 172.714844 13.808594 172.382812 C 14.304688 172.054688 14.8125 171.75 15.339844 171.46875 C 15.863281 171.1875 16.402344 170.933594 16.953125 170.703125 C 17.5 170.476562 18.0625 170.277344 18.628906 170.105469 C 19.199219 169.929688 19.777344 169.785156 20.359375 169.671875 C 20.945312 169.554688 21.53125 169.46875 22.125 169.410156 C 22.71875 169.351562 23.3125 169.320312 23.90625 169.320312 L 42.085938 169.320312 C 42.679688 169.320312 43.273438 169.351562 43.867188 169.410156 C 44.457031 169.46875 45.046875 169.554688 45.628906 169.671875 C 46.214844 169.785156 46.789062 169.929688 47.359375 170.105469 C 47.929688 170.277344 48.488281 170.476562 49.039062 170.703125 C 49.589844 170.933594 50.128906 171.1875 50.652344 171.46875 C 51.175781 171.75 51.6875 172.054688 52.183594 172.382812 C 52.675781 172.714844 53.15625 173.070312 53.613281 173.445312 C 54.074219 173.824219 54.515625 174.222656 54.9375 174.644531 C 55.359375 175.066406 55.757812 175.507812 56.136719 175.96875 C 56.511719 176.425781 56.867188 176.90625 57.199219 177.398438 C 57.527344 177.894531 57.832031 178.40625 58.113281 178.929688 C 58.394531 179.453125 58.648438 179.992188 58.878906 180.542969 C 59.105469 181.09375 59.304688 181.652344 59.476562 182.222656 C 59.652344 182.792969 59.796875 183.367188 59.910156 183.953125 C 60.027344 184.535156 60.113281 185.125 60.171875 185.714844 C 60.230469 186.308594 60.261719 186.902344 60.261719 187.5 C 60.261719 188.09375 60.230469 188.6875 60.171875 189.28125 C 60.113281 189.871094 60.027344 190.460938 59.910156 191.042969 C 59.796875 191.628906 59.652344 192.203125 59.476562 192.773438 C 59.304688 193.34375 59.105469 193.902344 58.878906 194.453125 C 58.648438 195.003906 58.394531 195.542969 58.113281 196.066406 C 57.832031 196.589844 57.527344 197.101562 57.199219 197.597656 C 56.867188 198.089844 56.511719 198.570312 56.136719 199.027344 C 55.757812 199.488281 55.359375 199.929688 54.9375 200.351562 C 54.515625 200.773438 54.074219 201.171875 53.613281 201.550781 C 53.15625 201.925781 52.675781 202.28125 52.183594 202.613281 C 51.6875 202.941406 51.175781 203.246094 50.652344 203.527344 C 50.128906 203.808594 49.589844 204.0625 49.039062 204.292969 C 48.488281 204.519531 47.929688 204.71875 47.359375 204.890625 C 46.789062 205.066406 46.214844 205.210938 45.628906 205.324219 C 45.046875 205.441406 44.457031 205.527344 43.867188 205.585938 C 43.273438 205.644531 42.679688 205.675781 42.085938 205.675781 Z M 42.085938 205.675781 " fill-opacity="1" fill-rule="nonzero"/><path fill="#ffffff" d="M 290.378906 102.792969 C 288.121094 102.691406 285.957031 102.1875 283.886719 101.277344 C 281.820312 100.367188 279.984375 99.117188 278.382812 97.523438 C 277.964844 97.101562 277.566406 96.664062 277.191406 96.203125 C 276.816406 95.742188 276.464844 95.265625 276.136719 94.773438 C 275.808594 94.28125 275.503906 93.769531 275.226562 93.246094 C 274.949219 92.722656 274.695312 92.1875 274.46875 91.640625 C 274.242188 91.089844 274.042969 90.535156 273.875 89.964844 C 273.703125 89.398438 273.558594 88.824219 273.441406 88.242188 C 273.328125 87.660156 273.242188 87.074219 273.183594 86.484375 C 273.125 85.894531 273.097656 85.300781 273.097656 84.707031 C 273.097656 84.117188 273.125 83.523438 273.183594 82.933594 C 273.242188 82.34375 273.328125 81.757812 273.441406 81.175781 C 273.558594 80.59375 273.703125 80.019531 273.871094 79.453125 C 274.042969 78.882812 274.242188 78.324219 274.46875 77.777344 C 274.695312 77.230469 274.949219 76.695312 275.226562 76.167969 C 275.503906 75.644531 275.808594 75.136719 276.136719 74.644531 C 276.464844 74.148438 276.816406 73.671875 277.191406 73.214844 C 277.566406 72.753906 277.964844 72.316406 278.382812 71.894531 L 291.289062 58.988281 C 291.695312 58.515625 292.125 58.0625 292.574219 57.632812 C 293.027344 57.203125 293.503906 56.796875 293.996094 56.414062 C 294.492188 56.03125 295.003906 55.679688 295.535156 55.351562 C 296.066406 55.019531 296.613281 54.722656 297.175781 54.449219 C 297.738281 54.175781 298.3125 53.933594 298.902344 53.722656 C 299.488281 53.507812 300.085938 53.328125 300.691406 53.175781 C 301.296875 53.023438 301.910156 52.90625 302.527344 52.816406 C 303.144531 52.730469 303.769531 52.671875 304.390625 52.648438 C 305.015625 52.625 305.640625 52.632812 306.261719 52.671875 C 306.886719 52.710938 307.507812 52.785156 308.121094 52.890625 C 308.738281 52.992188 309.347656 53.128906 309.949219 53.296875 C 310.550781 53.460938 311.140625 53.660156 311.722656 53.886719 C 312.304688 54.113281 312.875 54.371094 313.429688 54.660156 C 313.984375 54.945312 314.523438 55.257812 315.046875 55.601562 C 315.566406 55.941406 316.070312 56.3125 316.558594 56.707031 C 317.042969 57.097656 317.503906 57.515625 317.945312 57.957031 C 318.386719 58.398438 318.804688 58.863281 319.199219 59.347656 C 319.59375 59.832031 319.960938 60.335938 320.304688 60.859375 C 320.644531 61.382812 320.960938 61.921875 321.246094 62.476562 C 321.53125 63.03125 321.789062 63.597656 322.019531 64.179688 C 322.246094 64.761719 322.441406 65.355469 322.609375 65.957031 C 322.777344 66.558594 322.910156 67.167969 323.015625 67.78125 C 323.121094 68.398438 323.191406 69.019531 323.230469 69.640625 C 323.273438 70.265625 323.28125 70.890625 323.257812 71.511719 C 323.230469 72.136719 323.175781 72.757812 323.089844 73.375 C 323 73.996094 322.878906 74.609375 322.730469 75.214844 C 322.578125 75.820312 322.394531 76.417969 322.183594 77.003906 C 321.96875 77.589844 321.726562 78.164062 321.457031 78.726562 C 321.183594 79.289062 320.882812 79.835938 320.554688 80.367188 C 320.226562 80.898438 319.871094 81.414062 319.492188 81.90625 C 319.109375 82.402344 318.703125 82.875 318.273438 83.328125 C 317.84375 83.78125 317.390625 84.210938 316.917969 84.617188 L 304.011719 97.523438 C 303.121094 98.410156 302.144531 99.195312 301.089844 99.882812 C 300.035156 100.566406 298.921875 101.136719 297.746094 101.589844 C 296.574219 102.042969 295.367188 102.371094 294.125 102.574219 C 292.882812 102.777344 291.636719 102.851562 290.378906 102.792969 Z M 290.378906 102.792969 " fill-opacity="1" fill-rule="nonzero"/><path fill="#ffffff" d="M 71.894531 321.277344 C 69.476562 321.292969 67.152344 320.84375 64.914062 319.929688 C 62.679688 319.015625 60.703125 317.707031 58.988281 316.007812 C 58.570312 315.585938 58.171875 315.148438 57.796875 314.6875 C 57.421875 314.226562 57.070312 313.75 56.742188 313.257812 C 56.414062 312.765625 56.113281 312.253906 55.832031 311.730469 C 55.554688 311.207031 55.300781 310.671875 55.074219 310.125 C 54.851562 309.574219 54.652344 309.019531 54.480469 308.449219 C 54.308594 307.882812 54.164062 307.308594 54.050781 306.726562 C 53.933594 306.144531 53.847656 305.558594 53.789062 304.96875 C 53.730469 304.378906 53.703125 303.785156 53.703125 303.191406 C 53.703125 302.601562 53.730469 302.007812 53.789062 301.417969 C 53.847656 300.828125 53.933594 300.242188 54.050781 299.660156 C 54.164062 299.078125 54.308594 298.503906 54.480469 297.9375 C 54.652344 297.367188 54.851562 296.808594 55.074219 296.261719 C 55.300781 295.714844 55.554688 295.179688 55.832031 294.65625 C 56.113281 294.132812 56.414062 293.621094 56.742188 293.128906 C 57.070312 292.632812 57.421875 292.15625 57.796875 291.699219 C 58.171875 291.238281 58.570312 290.800781 58.988281 290.378906 L 71.894531 278.382812 C 72.753906 277.644531 73.679688 276.992188 74.660156 276.425781 C 75.644531 275.863281 76.671875 275.394531 77.746094 275.019531 C 78.816406 274.648438 79.914062 274.378906 81.035156 274.210938 C 82.15625 274.042969 83.285156 273.980469 84.417969 274.023438 C 85.550781 274.070312 86.671875 274.21875 87.777344 274.46875 C 88.882812 274.722656 89.957031 275.078125 90.996094 275.53125 C 92.035156 275.988281 93.023438 276.535156 93.960938 277.171875 C 94.898438 277.8125 95.769531 278.53125 96.570312 279.335938 C 97.371094 280.136719 98.09375 281.007812 98.730469 281.945312 C 99.371094 282.882812 99.917969 283.871094 100.371094 284.910156 C 100.828125 285.949219 101.179688 287.019531 101.433594 288.128906 C 101.6875 289.234375 101.835938 290.351562 101.878906 291.484375 C 101.925781 292.621094 101.863281 293.746094 101.695312 294.871094 C 101.527344 295.992188 101.257812 297.089844 100.882812 298.160156 C 100.511719 299.230469 100.042969 300.257812 99.476562 301.242188 C 98.914062 302.226562 98.261719 303.148438 97.523438 304.011719 L 84.617188 316.917969 C 82.855469 318.429688 80.871094 319.5625 78.675781 320.316406 C 76.476562 321.070312 74.214844 321.390625 71.894531 321.277344 Z M 71.894531 321.277344 " fill-opacity="1" fill-rule="nonzero"/><path fill="#ffffff" d="M 187.5 60.261719 C 186.902344 60.261719 186.308594 60.230469 185.714844 60.171875 C 185.125 60.113281 184.535156 60.027344 183.953125 59.910156 C 183.367188 59.796875 182.792969 59.652344 182.222656 59.476562 C 181.652344 59.304688 181.09375 59.105469 180.542969 58.878906 C 179.992188 58.648438 179.453125 58.394531 178.929688 58.113281 C 178.40625 57.832031 177.894531 57.527344 177.398438 57.199219 C 176.90625 56.867188 176.425781 56.511719 175.96875 56.136719 C 175.507812 55.757812 175.066406 55.359375 174.644531 54.9375 C 174.222656 54.515625 173.824219 54.074219 173.445312 53.613281 C 173.070312 53.15625 172.714844 52.675781 172.382812 52.183594 C 172.054688 51.6875 171.75 51.175781 171.46875 50.652344 C 171.1875 50.128906 170.933594 49.589844 170.703125 49.039062 C 170.476562 48.488281 170.277344 47.929688 170.105469 47.359375 C 169.929688 46.789062 169.785156 46.214844 169.671875 45.628906 C 169.554688 45.046875 169.46875 44.457031 169.410156 43.867188 C 169.351562 43.273438 169.320312 42.679688 169.320312 42.085938 L 169.320312 23.90625 C 169.320312 23.3125 169.351562 22.71875 169.410156 22.125 C 169.46875 21.53125 169.554688 20.945312 169.671875 20.359375 C 169.785156 19.777344 169.929688 19.199219 170.105469 18.628906 C 170.277344 18.0625 170.476562 17.5 170.703125 16.953125 C 170.933594 16.402344 171.1875 15.863281 171.46875 15.339844 C 171.75 14.8125 172.054688 14.304688 172.382812 13.808594 C 172.714844 13.3125 173.070312 12.835938 173.445312 12.375 C 173.824219 11.914062 174.222656 11.476562 174.644531 11.054688 C 175.066406 10.632812 175.507812 10.234375 175.96875 9.855469 C 176.425781 9.480469 176.90625 9.125 177.398438 8.792969 C 177.894531 8.464844 178.40625 8.15625 178.929688 7.875 C 179.453125 7.597656 179.992188 7.34375 180.542969 7.113281 C 181.09375 6.886719 181.652344 6.6875 182.222656 6.511719 C 182.792969 6.339844 183.367188 6.195312 183.953125 6.078125 C 184.535156 5.964844 185.125 5.875 185.714844 5.816406 C 186.308594 5.757812 186.902344 5.730469 187.5 5.730469 C 188.09375 5.730469 188.6875 5.757812 189.28125 5.816406 C 189.871094 5.875 190.460938 5.964844 191.042969 6.078125 C 191.628906 6.195312 192.203125 6.339844 192.773438 6.511719 C 193.34375 6.6875 193.902344 6.886719 194.453125 7.113281 C 195.003906 7.34375 195.542969 7.597656 196.066406 7.875 C 196.589844 8.15625 197.101562 8.464844 197.597656 8.792969 C 198.089844 9.125 198.570312 9.480469 199.027344 9.855469 C 199.488281 10.234375 199.929688 10.632812 200.351562 11.054688 C 200.773438 11.476562 201.171875 11.914062 201.550781 12.375 C 201.925781 12.835938 202.28125 13.3125 202.613281 13.808594 C 202.941406 14.304688 203.246094 14.8125 203.527344 15.339844 C 203.808594 15.863281 204.0625 16.402344 204.292969 16.953125 C 204.519531 17.5 204.71875 18.0625 204.890625 18.628906 C 205.066406 19.199219 205.210938 19.777344 205.324219 20.359375 C 205.441406 20.945312 205.527344 21.53125 205.585938 22.125 C 205.644531 22.71875 205.675781 23.3125 205.675781 23.90625 L 205.675781 42.085938 C 205.675781 42.679688 205.644531 43.273438 205.585938 43.867188 C 205.527344 44.457031 205.441406 45.046875 205.324219 45.628906 C 205.210938 46.214844 205.066406 46.789062 204.890625 47.359375 C 204.71875 47.929688 204.519531 48.488281 204.292969 49.039062 C 204.0625 49.589844 203.808594 50.128906 203.527344 50.652344 C 203.246094 51.175781 202.941406 51.6875 202.613281 52.183594 C 202.28125 52.675781 201.925781 53.15625 201.550781 53.613281 C 201.171875 54.074219 200.773438 54.515625 200.351562 54.9375 C 199.929688 55.359375 199.488281 55.757812 199.027344 56.136719 C 198.570312 56.511719 198.089844 56.867188 197.597656 57.199219 C 197.101562 57.527344 196.589844 57.832031 196.066406 58.113281 C 195.542969 58.394531 195.003906 58.648438 194.453125 58.878906 C 193.902344 59.105469 193.34375 59.304688 192.773438 59.476562 C 192.203125 59.652344 191.628906 59.796875 191.042969 59.910156 C 190.460938 60.027344 189.871094 60.113281 189.28125 60.171875 C 188.6875 60.230469 188.09375 60.261719 187.5 60.261719 Z M 187.5 60.261719 " fill-opacity="1" fill-rule="nonzero"/><path fill="#ffffff" d="M 187.5 369.265625 C 186.902344 369.265625 186.308594 369.238281 185.714844 369.179688 C 185.125 369.121094 184.535156 369.03125 183.953125 368.917969 C 183.367188 368.800781 182.792969 368.65625 182.222656 368.484375 C 181.652344 368.308594 181.09375 368.109375 180.542969 367.882812 C 179.992188 367.652344 179.453125 367.398438 178.929688 367.121094 C 178.40625 366.839844 177.894531 366.53125 177.398438 366.203125 C 176.90625 365.871094 176.425781 365.515625 175.96875 365.140625 C 175.507812 364.761719 175.066406 364.363281 174.644531 363.941406 C 174.222656 363.519531 173.824219 363.082031 173.445312 362.621094 C 173.070312 362.160156 172.714844 361.683594 172.382812 361.1875 C 172.054688 360.691406 171.75 360.183594 171.46875 359.65625 C 171.1875 359.132812 170.933594 358.59375 170.703125 358.042969 C 170.476562 357.496094 170.277344 356.933594 170.105469 356.367188 C 169.929688 355.796875 169.785156 355.21875 169.671875 354.636719 C 169.554688 354.050781 169.46875 353.464844 169.410156 352.871094 C 169.351562 352.277344 169.320312 351.683594 169.320312 351.089844 L 169.320312 332.914062 C 169.320312 332.316406 169.351562 331.722656 169.410156 331.128906 C 169.46875 330.539062 169.554688 329.949219 169.671875 329.367188 C 169.785156 328.78125 169.929688 328.207031 170.105469 327.636719 C 170.277344 327.066406 170.476562 326.507812 170.703125 325.957031 C 170.933594 325.40625 171.1875 324.867188 171.46875 324.34375 C 171.75 323.820312 172.054688 323.308594 172.382812 322.8125 C 172.714844 322.320312 173.070312 321.839844 173.445312 321.382812 C 173.824219 320.921875 174.222656 320.480469 174.644531 320.058594 C 175.066406 319.636719 175.507812 319.238281 175.96875 318.859375 C 176.425781 318.484375 176.90625 318.128906 177.398438 317.796875 C 177.894531 317.46875 178.40625 317.164062 178.929688 316.882812 C 179.453125 316.601562 179.992188 316.347656 180.542969 316.117188 C 181.09375 315.890625 181.652344 315.691406 182.222656 315.519531 C 182.792969 315.34375 183.367188 315.199219 183.953125 315.085938 C 184.535156 314.96875 185.125 314.882812 185.714844 314.824219 C 186.308594 314.765625 186.902344 314.734375 187.5 314.734375 C 188.09375 314.734375 188.6875 314.765625 189.28125 314.824219 C 189.871094 314.882812 190.460938 314.96875 191.042969 315.085938 C 191.628906 315.199219 192.203125 315.34375 192.773438 315.519531 C 193.34375 315.691406 193.902344 315.890625 194.453125 316.117188 C 195.003906 316.347656 195.542969 316.601562 196.066406 316.882812 C 196.589844 317.164062 197.101562 317.46875 197.597656 317.796875 C 198.089844 318.128906 198.570312 318.484375 199.027344 318.859375 C 199.488281 319.238281 199.929688 319.636719 200.351562 320.058594 C 200.773438 320.480469 201.171875 320.921875 201.550781 321.382812 C 201.925781 321.839844 202.28125 322.320312 202.613281 322.8125 C 202.941406 323.308594 203.246094 323.820312 203.527344 324.34375 C 203.808594 324.867188 204.0625 325.40625 204.292969 325.957031 C 204.519531 326.507812 204.71875 327.066406 204.890625 327.636719 C 205.066406 328.207031 205.210938 328.78125 205.324219 329.367188 C 205.441406 329.949219 205.527344 330.539062 205.585938 331.128906 C 205.644531 331.722656 205.675781 332.316406 205.675781 332.914062 L 205.675781 351.089844 C 205.675781 351.683594 205.644531 352.277344 205.585938 352.871094 C 205.527344 353.464844 205.441406 354.050781 205.324219 354.636719 C 205.210938 355.21875 205.066406 355.796875 204.890625 356.367188 C 204.71875 356.933594 204.519531 357.496094 204.292969 358.042969 C 204.0625 358.59375 203.808594 359.132812 203.527344 359.65625 C 203.246094 360.183594 202.941406 360.691406 202.613281 361.1875 C 202.28125 361.683594 201.925781 362.160156 201.550781 362.621094 C 201.171875 363.082031 200.773438 363.519531 200.351562 363.941406 C 199.929688 364.363281 199.488281 364.761719 199.027344 365.140625 C 198.570312 365.515625 198.089844 365.871094 197.597656 366.203125 C 197.101562 366.53125 196.589844 366.839844 196.066406 367.121094 C 195.542969 367.398438 195.003906 367.652344 194.453125 367.882812 C 193.902344 368.109375 193.34375 368.308594 192.773438 368.484375 C 192.203125 368.65625 191.628906 368.800781 191.042969 368.917969 C 190.460938 369.03125 189.871094 369.121094 189.28125 369.179688 C 188.6875 369.238281 188.09375 369.265625 187.5 369.265625 Z M 187.5 369.265625 " fill-opacity="1" fill-rule="nonzero"/><path fill="#ffffff" d="M 84.617188 102.792969 C 82.234375 102.785156 79.941406 102.324219 77.738281 101.410156 C 75.535156 100.496094 73.585938 99.203125 71.894531 97.523438 L 58.988281 84.617188 C 58.25 83.757812 57.597656 82.832031 57.035156 81.847656 C 56.46875 80.867188 56 79.839844 55.625 78.765625 C 55.253906 77.695312 54.984375 76.597656 54.816406 75.476562 C 54.648438 74.355469 54.585938 73.226562 54.632812 72.09375 C 54.675781 70.960938 54.824219 69.839844 55.078125 68.734375 C 55.332031 67.628906 55.683594 66.554688 56.140625 65.515625 C 56.59375 64.476562 57.140625 63.488281 57.777344 62.550781 C 58.417969 61.613281 59.140625 60.742188 59.941406 59.941406 C 60.742188 59.140625 61.613281 58.417969 62.550781 57.777344 C 63.488281 57.140625 64.476562 56.59375 65.515625 56.140625 C 66.554688 55.683594 67.628906 55.332031 68.734375 55.078125 C 69.839844 54.824219 70.960938 54.675781 72.09375 54.632812 C 73.226562 54.585938 74.355469 54.648438 75.476562 54.816406 C 76.597656 54.984375 77.695312 55.253906 78.765625 55.625 C 79.839844 56 80.867188 56.46875 81.847656 57.035156 C 82.832031 57.597656 83.757812 58.25 84.617188 58.988281 L 97.523438 71.894531 C 97.941406 72.316406 98.335938 72.753906 98.710938 73.214844 C 99.085938 73.671875 99.441406 74.148438 99.769531 74.644531 C 100.097656 75.136719 100.398438 75.644531 100.679688 76.167969 C 100.957031 76.695312 101.210938 77.230469 101.433594 77.777344 C 101.660156 78.324219 101.859375 78.882812 102.03125 79.453125 C 102.203125 80.019531 102.347656 80.59375 102.460938 81.175781 C 102.578125 81.757812 102.664062 82.34375 102.722656 82.933594 C 102.78125 83.523438 102.808594 84.117188 102.808594 84.707031 C 102.808594 85.300781 102.78125 85.894531 102.722656 86.484375 C 102.664062 87.074219 102.578125 87.660156 102.460938 88.242188 C 102.347656 88.824219 102.203125 89.398438 102.03125 89.964844 C 101.859375 90.535156 101.660156 91.089844 101.433594 91.640625 C 101.210938 92.1875 100.957031 92.722656 100.679688 93.246094 C 100.398438 93.769531 100.097656 94.28125 99.769531 94.773438 C 99.441406 95.265625 99.085938 95.742188 98.710938 96.203125 C 98.335938 96.664062 97.941406 97.101562 97.523438 97.523438 C 95.808594 99.222656 93.832031 100.53125 91.597656 101.445312 C 89.359375 102.359375 87.035156 102.808594 84.617188 102.792969 Z M 84.617188 102.792969 " fill-opacity="1" fill-rule="nonzero"/><path fill="#ffffff" d="M 303.101562 321.277344 C 300.71875 321.269531 298.425781 320.808594 296.222656 319.894531 C 294.019531 318.984375 292.070312 317.6875 290.378906 316.007812 L 278.382812 303.101562 C 277.90625 302.246094 277.5 301.355469 277.167969 300.429688 C 276.835938 299.507812 276.578125 298.5625 276.398438 297.597656 C 276.21875 296.632812 276.117188 295.660156 276.09375 294.679688 C 276.074219 293.699219 276.128906 292.722656 276.265625 291.75 C 276.402344 290.777344 276.613281 289.824219 276.90625 288.886719 C 277.195312 287.949219 277.558594 287.039062 277.996094 286.164062 C 278.433594 285.285156 278.941406 284.445312 279.511719 283.648438 C 280.085938 282.851562 280.71875 282.109375 281.414062 281.414062 C 282.109375 280.71875 282.851562 280.085938 283.648438 279.511719 C 284.445312 278.941406 285.285156 278.433594 286.164062 277.996094 C 287.039062 277.558594 287.949219 277.195312 288.886719 276.90625 C 289.824219 276.613281 290.777344 276.402344 291.75 276.265625 C 292.722656 276.128906 293.699219 276.074219 294.679688 276.09375 C 295.660156 276.117188 296.632812 276.21875 297.597656 276.398438 C 298.5625 276.578125 299.507812 276.835938 300.429688 277.167969 C 301.355469 277.5 302.246094 277.90625 303.101562 278.382812 L 316.007812 291.289062 C 316.425781 291.707031 316.824219 292.148438 317.199219 292.605469 C 317.574219 293.066406 317.925781 293.542969 318.253906 294.039062 C 318.582031 294.53125 318.882812 295.039062 319.164062 295.5625 C 319.441406 296.085938 319.695312 296.621094 319.921875 297.171875 C 320.144531 297.71875 320.34375 298.277344 320.515625 298.84375 C 320.6875 299.414062 320.832031 299.988281 320.945312 300.570312 C 321.0625 301.152344 321.148438 301.738281 321.207031 302.328125 C 321.265625 302.917969 321.292969 303.507812 321.292969 304.101562 C 321.292969 304.695312 321.265625 305.285156 321.207031 305.875 C 321.148438 306.46875 321.0625 307.054688 320.945312 307.636719 C 320.832031 308.214844 320.6875 308.792969 320.515625 309.359375 C 320.34375 309.925781 320.144531 310.484375 319.921875 311.03125 C 319.695312 311.582031 319.441406 312.117188 319.164062 312.640625 C 318.882812 313.164062 318.582031 313.671875 318.253906 314.167969 C 317.925781 314.660156 317.574219 315.136719 317.199219 315.597656 C 316.824219 316.054688 316.425781 316.496094 316.007812 316.917969 C 314.222656 318.453125 312.210938 319.597656 309.980469 320.351562 C 307.746094 321.105469 305.453125 321.414062 303.101562 321.277344 Z M 303.101562 321.277344 " fill-opacity="1" fill-rule="nonzero"/></svg>