<svg width="541" height="449" viewBox="0 0 541 449" fill="none" xmlns="http://www.w3.org/2000/svg">
<g clip-path="url(#clip0_29_380)">
<path d="M133.534 409.699L134.635 433.175L134.635 433.176C134.82 437.144 133.441 441.024 130.801 443.963C128.16 446.901 124.474 448.658 120.554 448.846L120.074 448.869L118.272 410.432L133.534 409.699Z" fill="#2F2E41"/>
<path d="M463.297 370.027C452.25 391.847 438.239 412.949 420.51 432.048C420.116 432.48 419.719 432.9 419.318 433.328L377.314 413.201C377.571 412.769 377.852 412.284 378.155 411.754C396.199 380.507 505.117 189.901 501.675 146.731C502.076 150.291 514.986 268.038 463.297 370.027Z" fill="#E6E6E6"/>
<path d="M428.614 435.931C428.026 436.27 427.423 436.601 426.816 436.921L395.306 421.822C395.746 421.506 396.259 421.132 396.849 420.711C406.503 413.696 435.209 392.648 463.297 370.027C493.483 345.718 522.961 319.599 527.338 307.131C526.449 309.99 498.821 396.894 428.614 435.931Z" fill="#E6E6E6"/>
<path d="M52.4161 447.932C79.2733 447.932 101.045 425.895 101.045 398.712C101.045 371.528 79.2733 349.492 52.4161 349.492C25.5589 349.492 3.78687 371.528 3.78687 398.712C3.78687 425.895 25.5589 447.932 52.4161 447.932Z" fill="#6C63FF"/>
<path d="M71.8952 378.057H32.9367C31.2152 378.059 29.5648 378.752 28.3475 379.984C27.1303 381.216 26.4456 382.887 26.4436 384.629V412.794C26.4455 414.537 27.1302 416.207 28.3475 417.439C29.5648 418.671 31.2152 419.364 32.9367 419.366H71.8952C73.6167 419.364 75.2672 418.671 76.4844 417.439C77.7017 416.207 78.3864 414.537 78.3884 412.794V384.629C78.3864 382.887 77.7017 381.216 76.4844 379.984C75.2671 378.752 73.6167 378.059 71.8952 378.057ZM71.8952 381.812C72.1278 381.813 72.3593 381.844 72.5844 381.903L52.4204 398.184L32.3744 381.87C32.5594 381.832 32.7478 381.812 32.9366 381.812H71.8952ZM71.8952 415.611H32.9367C32.1989 415.61 31.4916 415.313 30.9699 414.785C30.4482 414.257 30.1548 413.541 30.1539 412.794V384.882L51.2535 402.053C51.5821 402.32 51.9908 402.466 52.4124 402.467C52.834 402.468 53.2433 402.323 53.5729 402.057L74.678 385.017V412.794C74.6772 413.541 74.3837 414.257 73.862 414.785C73.3403 415.313 72.633 415.61 71.8952 415.611Z" fill="white"/>
<path d="M240.088 327.651L250.968 327.742C252.069 327.751 253.159 327.517 254.162 327.056C255.164 326.595 256.055 325.918 256.773 325.073C257.49 324.228 258.017 323.234 258.316 322.162C258.615 321.089 258.68 319.964 258.505 318.864C258.317 317.679 257.857 316.556 257.162 315.585C256.467 314.614 255.556 313.821 254.503 313.271C253.45 312.721 252.284 312.429 251.099 312.418C249.914 312.407 248.743 312.678 247.681 313.208L237.42 318.333L202.324 326.255L187.288 310.696L178.651 325.093L198.941 340.959L240.088 327.651Z" fill="#FFB8B8"/>
<path d="M238.048 441.434L225.228 443.929C216.472 415.992 206.985 389.535 206.985 369.072C194.593 383.031 179.226 391.017 161.131 393.525L163.103 362.584L177.895 354.6L200.533 344.024C202.515 343.098 204.654 342.563 206.834 342.447C211.072 342.221 215.243 343.59 218.544 346.29C221.845 348.991 224.042 352.831 224.712 357.073L238.048 441.434Z" fill="#2F2E41"/>
<path d="M176.662 389.783L171.553 393.713C169.356 395.403 166.76 396.482 164.024 396.843C161.287 397.204 158.505 396.835 155.954 395.771C141.319 384.668 130.922 387.944 121.499 404.702C110.196 391.791 107.408 373.143 117.495 353.851L173.457 355.099L184.798 351.605L176.662 389.783Z" fill="#2F2E41"/>
<path d="M158.025 447.603C154.818 448.602 151.366 448.426 148.274 447.108C145.183 445.789 142.648 443.412 141.114 440.392C136.085 435.908 131.841 429.489 128.161 421.683C125.52 415.957 123.252 410.062 121.373 404.036C118.826 396.074 123.084 387.377 131.01 384.995C131.246 384.924 131.484 384.857 131.726 384.794C142.306 382.045 153.172 388.222 156.789 398.655L167.306 428.992C167.927 430.784 168.193 432.682 168.09 434.578C167.986 436.475 167.514 438.332 166.702 440.044C165.889 441.756 164.751 443.289 163.353 444.556C161.955 445.822 160.324 446.798 158.553 447.427C158.378 447.489 158.202 447.548 158.025 447.603Z" fill="#2F2E41"/>
<path opacity="0.2" d="M126.37 418.228C126.37 418.228 138.696 432.202 141.162 440.186L126.37 418.228Z" fill="black"/>
<path d="M78.5629 352.283L74.4375 362.474C74.0201 363.505 73.8299 364.616 73.8802 365.729C73.9306 366.842 74.2202 367.931 74.729 368.919C75.2378 369.908 75.9534 370.772 76.826 371.451C77.6986 372.131 78.7071 372.61 79.7813 372.854C80.9374 373.117 82.1384 373.102 83.2876 372.81C84.4369 372.518 85.5022 371.956 86.398 371.171C87.2938 370.386 87.995 369.399 88.4452 368.29C88.8954 367.18 89.0819 365.979 88.9899 364.784L88.101 353.237L93.8731 317.314L113.731 308.966L103.733 295.501L81.6419 308.673L78.5629 352.283Z" fill="#FFB8B8"/>
<path d="M177.155 353.851C162.988 377.936 134.746 387.263 110.557 368.403C114.812 354.252 128.55 315.143 119.675 313.646C100.831 321.644 100.804 302.865 97.2793 293.466L140.176 277.497L163.349 283.984L168.1 285.69C171.191 286.801 173.873 288.842 175.783 291.541C177.694 294.24 178.742 297.467 178.787 300.786C169.053 315.021 161.847 330.205 177.155 353.851Z" fill="#6C63FF"/>
<path d="M182.579 334.388L165.568 320.165L171.239 286.979L194.412 311.931L182.579 334.388Z" fill="#6C63FF"/>
<path d="M464.837 106.404H462.406V39.0067C462.406 28.6615 458.346 18.74 451.118 11.4248C443.891 4.10963 434.088 0 423.867 0H282.79C272.569 0 262.766 4.10963 255.539 11.4248C248.311 18.74 244.251 28.6615 244.251 39.0067V408.755C244.251 419.1 248.311 429.021 255.539 436.337C262.766 443.652 272.569 447.761 282.79 447.761H423.867C434.088 447.761 443.89 443.652 451.117 436.337C458.345 429.021 462.405 419.1 462.405 408.755V154.379H464.837L464.837 106.404Z" fill="#3F3D56"/>
<path d="M425.422 10.1473H407.007C407.854 12.2489 408.178 14.5292 407.949 16.7872C407.721 19.0452 406.947 21.2117 405.696 23.0957C404.445 24.9797 402.756 26.5233 400.776 27.5907C398.797 28.658 396.589 29.2163 394.346 29.2163H313.525C311.283 29.2161 309.075 28.6577 307.096 27.5904C305.117 26.5231 303.428 24.9797 302.177 23.0959C300.926 21.2122 300.153 19.0461 299.924 16.7884C299.695 14.5306 300.018 12.2506 300.865 10.1491H283.663C276.029 10.1491 268.709 13.2182 263.311 18.6813C257.914 24.1444 254.881 31.5539 254.881 39.2799V408.483C254.881 416.209 257.914 423.619 263.311 429.082C268.709 434.545 276.029 437.614 283.663 437.614H425.417C433.05 437.614 440.371 434.545 445.768 429.082C451.166 423.619 454.198 416.209 454.198 408.483V39.278C454.198 31.552 451.166 24.1425 445.768 18.6794C440.371 13.2164 433.05 10.1472 425.417 10.1472L425.422 10.1473Z" fill="white"/>
<path d="M354.786 416.982C363.514 416.982 370.59 409.82 370.59 400.985C370.59 392.151 363.514 384.989 354.786 384.989C346.057 384.989 338.981 392.151 338.981 400.985C338.981 409.82 346.057 416.982 354.786 416.982Z" fill="#E6E6E6"/>
<path d="M290.67 253.05C289.176 253.05 287.961 254.455 287.961 256.181C287.961 257.906 289.176 259.311 290.67 259.311H418.409C419.903 259.311 421.118 257.906 421.118 256.181C421.118 254.455 419.903 253.05 418.409 253.05H290.67Z" fill="#E6E6E6"/>
<path d="M290.67 326.88C289.176 326.88 287.961 328.285 287.961 330.01C287.961 331.736 289.176 333.141 290.67 333.141H418.409C419.903 333.141 421.118 331.736 421.118 330.01C421.118 328.285 419.903 326.88 418.409 326.88H290.67Z" fill="#E6E6E6"/>
<path d="M290.67 271.832C289.176 271.832 287.961 273.237 287.961 274.962C287.961 276.688 289.176 278.093 290.67 278.093H345.637C347.13 278.093 348.346 276.688 348.346 274.962C348.346 273.237 347.13 271.832 345.637 271.832H290.67Z" fill="#E6E6E6"/>
<path d="M290.67 289.735C289.176 289.735 287.961 291.139 287.961 292.865C287.961 294.591 289.176 295.996 290.67 295.996H418.409C419.903 295.996 421.118 294.591 421.118 292.865C421.118 291.139 419.903 289.735 418.409 289.735H290.67Z" fill="#E6E6E6"/>
<path d="M290.67 308.517C289.176 308.517 287.961 309.921 287.961 311.647C287.961 313.373 289.176 314.777 290.67 314.777H345.637C347.13 314.777 348.346 313.373 348.346 311.647C348.346 309.921 347.13 308.517 345.637 308.517H290.67Z" fill="#E6E6E6"/>
<path d="M314.785 110.515H394.302C395.18 110.516 396.022 110.87 396.644 111.499C397.265 112.127 397.614 112.98 397.615 113.869V197.688C397.614 198.577 397.265 199.429 396.644 200.058C396.022 200.687 395.18 201.04 394.302 201.041H314.785C313.906 201.04 313.064 200.687 312.443 200.058C311.822 199.429 311.473 198.577 311.472 197.688V113.869C311.473 112.98 311.822 112.127 312.443 111.499C313.064 110.87 313.906 110.516 314.785 110.515Z" fill="#6C63FF"/>
<path d="M377.358 183.756C377.654 183.757 377.947 183.699 378.22 183.585C378.494 183.471 378.742 183.303 378.952 183.092C379.161 182.88 379.327 182.629 379.44 182.353C379.554 182.076 379.612 181.78 379.612 181.481C379.613 181.182 379.554 180.885 379.441 180.609C379.328 180.332 379.162 180.081 378.953 179.869C378.744 179.658 378.496 179.49 378.222 179.376C377.949 179.261 377.656 179.203 377.361 179.203H331.728C331.433 179.202 331.14 179.261 330.866 179.375C330.593 179.489 330.345 179.657 330.135 179.868C329.926 180.079 329.76 180.33 329.646 180.607C329.533 180.883 329.475 181.179 329.474 181.479C329.474 181.778 329.532 182.074 329.646 182.351C329.759 182.627 329.925 182.879 330.134 183.09C330.343 183.302 330.591 183.469 330.864 183.584C331.138 183.698 331.43 183.757 331.726 183.756H377.358Z" fill="white"/>
<path d="M377.359 170.343C377.955 170.343 378.527 170.103 378.949 169.676C379.371 169.249 379.608 168.67 379.608 168.066C379.608 167.462 379.371 166.883 378.949 166.456C378.527 166.029 377.955 165.789 377.359 165.789H331.728C331.132 165.789 330.56 166.029 330.138 166.455C329.716 166.882 329.478 167.461 329.478 168.065C329.478 168.669 329.714 169.248 330.136 169.675C330.558 170.102 331.13 170.342 331.726 170.343H377.359Z" fill="white"/>
<path d="M354.543 127.8C357.344 127.8 360.081 128.641 362.409 130.215C364.738 131.79 366.553 134.028 367.624 136.647C368.696 139.265 368.976 142.147 368.43 144.927C367.884 147.707 366.535 150.26 364.555 152.264C362.575 154.268 360.052 155.633 357.306 156.186C354.559 156.739 351.712 156.455 349.125 155.371C346.538 154.286 344.327 152.449 342.771 150.093C341.215 147.736 340.385 144.965 340.385 142.131C340.389 138.332 341.882 134.689 344.536 132.002C347.191 129.316 350.789 127.805 354.543 127.8Z" fill="white"/>
<path d="M173.888 273.152H131.855C130.99 273.151 130.161 272.803 129.55 272.184C128.938 271.565 128.594 270.726 128.593 269.851V251.513C128.593 244.996 131.151 238.745 135.704 234.137C140.257 229.529 146.432 226.94 152.871 226.94C159.31 226.94 165.486 229.529 170.039 234.137C174.592 238.745 177.15 244.996 177.15 251.513V269.851C177.149 270.726 176.805 271.565 176.193 272.184C175.582 272.803 174.753 273.151 173.888 273.152Z" fill="#2F2E41"/>
<path d="M173.131 262.673C177.846 253.942 174.676 242.995 166.05 238.223C157.424 233.45 146.609 236.659 141.894 245.389C137.178 254.12 140.349 265.067 148.975 269.839C157.6 274.612 168.416 271.403 173.131 262.673Z" fill="#FFB6B6"/>
<path d="M182.893 253.347H157.191L156.927 249.612L155.609 253.347H151.651L151.129 245.944L148.517 253.347H140.859V252.98C140.865 247.826 142.89 242.885 146.491 239.241C150.091 235.597 154.973 233.547 160.064 233.541H163.688C168.78 233.547 173.661 235.597 177.262 239.241C180.862 242.885 182.887 247.826 182.893 252.98V253.347Z" fill="#2F2E41"/>
<path d="M156.98 276.575C156.787 276.575 156.594 276.557 156.403 276.523L137.583 273.162V241.68H158.3L157.787 242.285C150.651 250.709 156.028 264.369 159.867 271.761C160.151 272.303 160.277 272.914 160.232 273.525C160.186 274.136 159.972 274.721 159.612 275.214C159.311 275.635 158.916 275.978 158.458 276.215C158.001 276.451 157.494 276.575 156.98 276.575Z" fill="#2F2E41"/>
<path d="M219.642 432.012L242.862 432.011H242.863C246.787 432.011 250.551 433.589 253.326 436.398C256.101 439.206 257.66 443.016 257.661 446.988V447.475L219.642 447.476L219.642 432.012Z" fill="#2F2E41"/>
<path d="M540.392 449H0.607865C0.446649 449 0.292036 448.935 0.178039 448.82C0.0640423 448.704 0 448.548 0 448.385C0 448.222 0.0640423 448.065 0.178039 447.95C0.292036 447.834 0.446649 447.77 0.607865 447.77H540.392C540.553 447.77 540.708 447.834 540.822 447.95C540.936 448.065 541 448.222 541 448.385C541 448.548 540.936 448.704 540.822 448.82C540.708 448.935 540.553 449 540.392 449Z" fill="#CACACA"/>
</g>
<defs>
<clipPath id="clip0_29_380">
<rect width="541" height="449" fill="white"/>
</clipPath>
</defs>
</svg>
