<svg width="1136" height="846" viewBox="0 0 1136 846" fill="none" xmlns="http://www.w3.org/2000/svg">
<path opacity="0.5" d="M242.705 63.1725C151.264 136.421 137.094 274.93 75.1644 377.113C53.6061 412.669 25.75 444.49 11.2163 483.935C-22.1505 574.22 23.7718 676.634 85.237 748.343C114.546 782.551 148.781 813.891 190.202 828.31C222.055 839.398 256.209 839.86 289.737 840.149L877.139 845.924C942.722 846.56 1015.59 844.269 1062.75 795.873C1095.24 762.55 1108.45 713.884 1119.65 667.432C1133.42 610.354 1145.89 548.367 1124.47 494.003C1100.01 431.804 1038.14 396.556 999.706 342.885C937.332 255.93 938.765 124.409 859.335 54.991C822.254 22.5921 773.324 9.88667 725.646 3.53395C635.759 -8.45923 550.616 14.1796 462.345 11.0225C386.891 8.32737 305.301 13.0245 242.705 63.1725Z" fill="#E7ECFF"/>
</svg>
